<svg xmlns="http://www.w3.org/2000/svg" width="120" height="45" fill="none" viewBox="0 0 120 45">
  <path fill="#1E2A78" d="M19.188 35h-8.424L6.768 18.476 3.24 35H0l4.86-22.86h8.604l3.78 16.74 3.564-16.74h3.312L19.188 35zm11.617-7.236a19.086 19.086 0 00-.216 1.512c-.024.48-.036.912-.036 1.296 0 .216.012.456.036.72.024.264.072.516.144.756.096.216.216.408.36.576.168.144.396.216.684.216.216 0 .456-.072.72-.216.288-.144.564-.348.828-.612.288-.264.552-.588.792-.972.264-.384.468-.816.612-1.296h5.904l-.936 3.852a7.57 7.57 0 01-1.656.792c-.624.216-1.284.396-1.98.54a20.53 20.53 0 01-2.124.252 20.66 20.66 0 01-2.052.108c-1.2 0-2.316-.108-3.348-.324-1.032-.216-1.932-.588-2.7-1.116a5.734 5.734 0 01-1.836-2.088c-.432-.888-.648-1.98-.648-3.276 0-1.176.18-2.328.54-3.456a7.68 7.68 0 011.872-2.988c.888-.888 2.064-1.596 3.528-2.124 1.488-.528 3.336-.792 5.544-.792 2.4 0 4.2.372 5.4 1.116 1.224.744 1.836 1.908 1.836 3.492 0 .648-.096 1.356-.288 2.124-.192.744-.48 1.38-.864 1.908H30.805zm4.788-4.284c0-.744-.12-1.248-.36-1.512a1.128 1.128 0 00-.864-.396c-.384 0-.744.132-1.08.396-.312.24-.6.576-.864 1.008a8.05 8.05 0 00-.72 1.44 11.633 11.633 0 00-.54 1.692h4.104c.048-.288.096-.588.144-.9.048-.264.084-.552.108-.864.048-.312.072-.6.072-.864zm7.889-3.96h7.632l1.26 10.584L56.73 19.52h6.876l1.224 10.584 4.356-10.584h3.816L65.838 35h-7.524l-1.332-7.848L53.346 35h-7.524l-2.34-15.48zm39.746 4.536l.072-.36c.024-.12.036-.252.036-.396 0-.432-.084-.828-.252-1.188-.144-.384-.444-.576-.9-.576-.408 0-.816.18-1.224.54-.408.336-.612.792-.612 1.368 0 .384.096.696.288.936.216.216.492.396.828.54.336.144.708.264 1.116.36.432.096.852.192 1.26.288.576.144 1.116.324 1.62.54.528.192.996.456 1.404.792.408.336.732.756.972 1.26.24.48.36 1.08.36 1.8 0 1.008-.24 1.86-.72 2.556-.456.672-1.104 1.224-1.944 1.656-.816.408-1.788.696-2.916.864a23.723 23.723 0 01-3.564.252c-1.944 0-3.552-.144-4.824-.432-1.272-.288-2.16-.564-2.664-.828l.756-3.6h4.86c-.024.12-.036.24-.036.36v.324c0 .552.12.996.36 1.332.264.312.708.468 1.332.468.696 0 1.188-.192 1.476-.576.312-.408.468-.78.468-1.116 0-.336-.132-.624-.396-.864a2.71 2.71 0 00-.936-.648 6.319 6.319 0 00-1.296-.468 39.81 39.81 0 00-1.332-.396 7.081 7.081 0 01-1.08-.36 4.408 4.408 0 01-1.116-.72 3.79 3.79 0 01-.9-1.188c-.24-.504-.36-1.128-.36-1.872 0-1.056.252-1.932.756-2.628a5.863 5.863 0 012.016-1.728c.84-.432 1.776-.744 2.808-.936a17.676 17.676 0 013.168-.288c1.32 0 2.568.12 3.744.36 1.176.24 2.136.552 2.88.936l-.828 3.636h-4.68zM96.703 35h-7.344l5.112-24.192h7.38L96.703 35zm12.599-15.48l1.08 10.584 5.688-10.584h3.816L111.21 35c-.864 1.512-1.74 2.676-2.628 3.492-.888.816-1.86 1.416-2.916 1.8-1.032.384-2.184.6-3.456.648a75.26 75.26 0 01-4.284.108l.54-2.484c.792 0 1.524-.012 2.196-.036.696-.024 1.248-.096 1.656-.216.552-.144.948-.408 1.188-.792.24-.36.36-.9.36-1.62 0-.48-.048-1.032-.144-1.656a90.162 90.162 0 00-.252-1.98l-1.764-12.744h7.596z"/>
</svg>
